# Blender v2.92.0 OBJ File: 'StrangeBuilding.blend'
# www.blender.org
mtllib StrangeBuilding.mtl
o Cube.001
v 10.000000 0.000000 -9.500000
v 10.000000 10.000000 -9.500000
v 10.000000 0.000000 -10.500000
v 10.000000 10.000000 -10.500000
v -10.000000 0.000000 -9.500000
v -10.000000 10.000000 -9.500000
v -10.000000 0.000000 -10.500000
v -10.000000 10.000000 -10.500000
v -8.280466 1.240046 -10.500000
v -8.280466 1.240046 -9.500000
v -8.280466 7.601701 -9.500000
v -8.280466 7.601701 -10.500000
v -3.562971 1.240046 -10.500000
v -3.562971 1.240046 -9.500000
v -3.562971 7.601701 -10.500000
v -3.562971 7.601701 -9.500000
vt 0.375000 0.000000
vt 0.375000 0.250000
vt 0.625000 0.250000
vt 0.625000 0.000000
vt 0.375000 0.500000
vt 0.375000 0.750000
vt 0.625000 0.750000
vt 0.625000 0.500000
vt 0.125000 0.500000
vt 0.125000 0.750000
vt 0.875000 0.750000
vt 0.875000 0.500000
vt 0.375000 0.352942
vt 0.625000 0.352942
vt 0.625000 0.326065
vt 0.375000 0.326065
vt 0.625000 0.897058
vt 0.375000 0.897058
vt 0.375000 0.923935
vt 0.625000 0.923935
vt 0.227942 0.750000
vt 0.227942 0.500000
vt 0.201065 0.500000
vt 0.201065 0.750000
vt 0.772058 0.500000
vt 0.772058 0.750000
vt 0.798935 0.750000
vt 0.798935 0.500000
vt 0.406001 0.478506
vt 0.406001 0.419537
vt 0.565042 0.419537
vt 0.565042 0.478506
vt 0.406001 0.771494
vt 0.565042 0.771494
vt 0.565042 0.830463
vt 0.406001 0.830463
vt 0.375000 1.000000
vt 0.625000 1.000000
vn 1.0000 0.0000 0.0000
vn -1.0000 0.0000 0.0000
vn 0.0000 -1.0000 0.0000
vn 0.0000 1.0000 0.0000
vn 0.0000 0.0000 -1.0000
vn 0.0000 0.0000 1.0000
usemtl Concrete
s off
f 1/1/1 3/2/1 4/3/1 2/4/1
f 7/5/2 5/6/2 6/7/2 8/8/2
f 3/9/3 1/10/3 5/6/3 7/5/3
f 8/8/4 6/7/4 2/11/4 4/12/4
f 9/13/1 12/14/1 11/15/1 10/16/1
f 15/17/2 13/18/2 14/19/2 16/20/2
f 13/21/4 9/22/4 10/23/4 14/24/4
f 12/25/3 15/26/3 16/27/3 11/28/3
f 9/29/5 13/30/5 15/31/5 12/32/5 8/8/5 4/3/5 3/2/5 7/5/5
f 8/8/5 12/32/5 9/29/5 7/5/5
f 10/33/6 11/34/6 6/7/6 5/6/6
f 11/34/6 16/35/6 14/36/6 10/33/6 5/6/6 1/37/6 2/38/6 6/7/6
o Cube.002
v -10.000000 0.000000 -10.000000
v -10.000000 -0.000000 10.000000
v -10.000000 1.000000 -10.000000
v -10.000000 1.000000 10.000000
v 10.000000 0.000000 -10.000000
v 10.000000 -0.000000 10.000000
v 10.000000 1.000000 -10.000000
v 10.000000 1.000000 10.000000
vt 0.375000 0.000000
vt 0.625000 0.000000
vt 0.625000 0.250000
vt 0.375000 0.250000
vt 0.625000 0.500000
vt 0.375000 0.500000
vt 0.625000 0.750000
vt 0.375000 0.750000
vt 0.625000 1.000000
vt 0.375000 1.000000
vt 0.125000 0.500000
vt 0.125000 0.750000
vt 0.875000 0.500000
vt 0.875000 0.750000
vn -1.0000 0.0000 0.0000
vn 0.0000 1.0000 0.0000
vn 1.0000 0.0000 0.0000
vn 0.0000 -1.0000 -0.0000
vn 0.0000 0.0000 -1.0000
vn 0.0000 0.0000 1.0000
usemtl None
s off
f 17/39/7 18/40/7 20/41/7 19/42/7
f 19/42/8 20/41/8 24/43/8 23/44/8
f 23/44/9 24/43/9 22/45/9 21/46/9
f 21/46/10 22/45/10 18/47/10 17/48/10
f 19/49/11 23/44/11 21/46/11 17/50/11
f 24/43/12 20/51/12 18/52/12 22/45/12
o Cube.003
v -9.500000 0.000000 -10.000000
v -9.500000 10.000000 -10.000000
v -10.500000 0.000000 -10.000000
v -10.500000 10.000000 -10.000000
v -9.500000 0.000000 10.000000
v -9.500000 10.000000 10.000000
v -10.500000 0.000000 10.000000
v -10.500000 10.000000 10.000000
v -9.500000 2.682949 -2.421203
v -10.500000 2.682949 -2.421203
v -10.500000 7.525354 -2.421203
v -9.500000 7.525354 -2.421203
v -10.500000 2.682949 2.421203
v -9.500000 2.682949 2.421203
v -9.500000 7.525354 2.421203
v -10.500000 7.525354 2.421203
vt 0.375000 0.000000
vt 0.375000 0.250000
vt 0.625000 0.250000
vt 0.625000 0.000000
vt 0.375000 0.500000
vt 0.375000 0.750000
vt 0.625000 0.750000
vt 0.625000 0.500000
vt 0.125000 0.500000
vt 0.125000 0.750000
vt 0.875000 0.750000
vt 0.875000 0.500000
vt 0.625000 0.294486
vt 0.375000 0.294486
vt 0.375000 0.298453
vt 0.625000 0.298453
vt 0.375000 0.955514
vt 0.625000 0.955514
vt 0.625000 0.951547
vt 0.375000 0.951547
vt 0.169486 0.500000
vt 0.169486 0.750000
vt 0.173453 0.750000
vt 0.173453 0.500000
vt 0.830514 0.750000
vt 0.830514 0.500000
vt 0.826547 0.500000
vt 0.826547 0.750000
vt 0.563134 0.405265
vt 0.442074 0.405265
vt 0.442074 0.344735
vt 0.563134 0.344735
vt 0.563134 0.844735
vt 0.563134 0.905265
vt 0.625000 1.000000
vt 0.442074 0.905265
vt 0.442074 0.844735
vt 0.375000 1.000000
vn 0.0000 0.0000 -1.0000
vn 0.0000 0.0000 1.0000
vn 0.0000 -1.0000 0.0000
vn 0.0000 1.0000 0.0000
vn -1.0000 0.0000 0.0000
vn 1.0000 0.0000 0.0000
usemtl Concrete
s off
f 25/53/13 27/54/13 28/55/13 26/56/13
f 31/57/14 29/58/14 30/59/14 32/60/14
f 27/61/15 25/62/15 29/58/15 31/57/15
f 32/60/16 30/59/16 26/63/16 28/64/16
f 35/65/14 34/66/14 33/67/14 36/68/14
f 37/69/13 40/70/13 39/71/13 38/72/13
f 34/73/16 37/74/16 38/75/16 33/76/16
f 40/77/15 35/78/15 36/79/15 39/80/15
f 32/60/17 40/81/17 37/82/17 34/83/17 35/84/17 28/55/17 27/54/17 31/57/17
f 28/55/17 35/84/17 40/81/17 32/60/17
f 39/85/18 36/86/18 26/87/18 30/59/18
f 26/87/18 36/86/18 33/88/18 38/89/18 39/85/18 30/59/18 29/58/18 25/90/18
o Cube.004
v 10.000000 0.000000 10.500000
v 10.000000 10.000000 10.500000
v 10.000000 0.000000 9.500000
v 10.000000 10.000000 9.500000
v -10.000000 0.000000 10.500000
v -10.000000 10.000000 10.500000
v -10.000000 0.000000 9.500000
v -10.000000 10.000000 9.500000
v -2.186674 2.682949 10.500000
v -2.186674 2.682949 9.500000
v -2.186674 7.525354 10.500000
v -2.186674 7.525354 9.500000
v 2.655732 2.682949 10.500000
v 2.655732 2.682949 9.500000
v 2.655732 7.525354 10.500000
v 2.655732 7.525354 9.500000
vt 0.375000 0.000000
vt 0.375000 0.250000
vt 0.625000 0.250000
vt 0.625000 0.000000
vt 0.375000 0.500000
vt 0.375000 0.750000
vt 0.625000 0.750000
vt 0.625000 0.500000
vt 0.125000 0.500000
vt 0.125000 0.750000
vt 0.875000 0.750000
vt 0.875000 0.500000
vt 0.375000 0.337314
vt 0.625000 0.337314
vt 0.625000 0.333348
vt 0.375000 0.333348
vt 0.625000 0.912685
vt 0.375000 0.912686
vt 0.375000 0.916652
vt 0.625000 0.916652
vt 0.208348 0.500000
vt 0.208348 0.750000
vt 0.212315 0.750000
vt 0.212315 0.500000
vt 0.787685 0.500000
vt 0.787686 0.750000
vt 0.791652 0.750000
vt 0.791652 0.500000
vt 0.442074 0.341803
vt 0.563134 0.341803
vt 0.563134 0.402333
vt 0.442074 0.402333
vt 0.442074 0.908197
vt 0.442074 0.847667
vt 0.563134 0.847667
vt 0.563134 0.908197
vt 0.625000 1.000000
vt 0.375000 1.000000
vn 1.0000 0.0000 0.0000
vn -1.0000 0.0000 0.0000
vn 0.0000 -1.0000 0.0000
vn 0.0000 1.0000 0.0000
vn 0.0000 0.0000 -1.0000
vn 0.0000 0.0000 1.0000
usemtl Concrete
s off
f 41/91/19 43/92/19 44/93/19 42/94/19
f 47/95/20 45/96/20 46/97/20 48/98/20
f 43/99/21 41/100/21 45/96/21 47/95/21
f 48/98/22 46/97/22 42/101/22 44/102/22
f 50/103/19 52/104/19 51/105/19 49/106/19
f 56/107/20 54/108/20 53/109/20 55/110/20
f 49/111/22 53/112/22 54/113/22 50/114/22
f 52/115/21 56/116/21 55/117/21 51/118/21
f 54/119/23 56/120/23 44/93/23 43/92/23
f 56/120/23 52/121/23 50/122/23 54/119/23 43/92/23 47/95/23 48/98/23 44/93/23
f 53/123/24 49/124/24 51/125/24 55/126/24 42/127/24 46/97/24 45/96/24 41/128/24
f 42/127/24 55/126/24 53/123/24 41/128/24
o Cube.005
v 10.500000 0.000000 -10.000000
v 10.500000 10.000000 -10.000000
v 9.500000 0.000000 -10.000000
v 9.500000 10.000000 -10.000000
v 10.500000 0.000000 10.000000
v 10.500000 10.000000 10.000000
v 9.500000 0.000000 10.000000
v 9.500000 10.000000 10.000000
v 10.500000 2.682949 -2.421203
v 9.500000 2.682949 -2.421203
v 10.500000 7.525354 -2.421203
v 9.500000 7.525354 -2.421203
v 10.500000 2.682949 2.421203
v 9.500000 2.682949 2.421203
v 10.500000 7.525354 2.421203
v 9.500000 7.525354 2.421203
vt 0.375000 0.000000
vt 0.375000 0.250000
vt 0.625000 0.250000
vt 0.625000 0.000000
vt 0.375000 0.500000
vt 0.375000 0.750000
vt 0.625000 0.750000
vt 0.625000 0.500000
vt 0.878639 0.000094
vt 0.296269 0.123946
vt 0.296269 0.876054
vt 0.878639 0.999906
vt 0.875000 0.750000
vt 0.875000 0.500000
vt 0.625000 0.373824
vt 0.375000 0.373824
vt 0.375000 0.377791
vt 0.625000 0.377791
vt 0.171682 0.497113
vt 0.154810 0.494817
vt 0.112747 0.537276
vt 0.204159 0.565216
vt 0.248824 0.500000
vt 0.248824 0.750000
vt 0.252791 0.750000
vt 0.252791 0.500000
vt 0.153718 0.493174
vt 0.109838 0.447788
vt 0.563134 0.344735
vt 0.563134 0.405265
vt 0.442074 0.405265
vt 0.442074 0.344735
vt 0.007952 0.288584
vt 0.000094 0.694072
vt 0.200294 0.422415
vn 0.0000 0.0000 -1.0000
vn 0.0000 0.0000 1.0000
vn 0.0000 -1.0000 0.0000
vn 0.0000 1.0000 0.0000
vn -1.0000 0.0000 0.0000
vn 1.0000 0.0000 0.0000
usemtl Concrete
s off
f 57/129/25 59/130/25 60/131/25 58/132/25
f 63/133/26 61/134/26 62/135/26 64/136/26
f 59/137/27 57/138/27 61/139/27 63/140/27
f 64/136/28 62/135/28 58/141/28 60/142/28
f 68/143/26 66/144/26 65/145/26 67/146/26
f 70/147/25 72/148/25 71/149/25 69/150/25
f 66/151/28 70/152/28 69/153/28 65/154/28
f 72/148/27 68/155/27 67/156/27 71/149/27
f 68/157/29 72/158/29 64/136/29 60/131/29
f 64/136/29 72/158/29 70/159/29 66/160/29 68/157/29 60/131/29 59/130/29 63/133/29
f 71/149/30 67/156/30 58/161/30 62/162/30
f 58/161/30 67/156/30 65/163/30 69/150/30 71/149/30 62/162/30 61/139/30 57/138/30
o Cube_Cube.006
v -3.562972 1.240046 -9.897924
v -3.562972 7.601701 -9.897924
v -8.280466 1.240046 -9.897924
v -8.280466 7.601701 -9.897924
v -3.562972 1.240046 -10.550928
v -3.562972 7.601701 -10.550928
v -8.280466 1.240046 -10.550928
v -8.280466 7.601701 -10.550928
vt 2.050473 0.334347
vt 2.050473 0.607470
vt 1.433707 0.607470
vt 1.433706 0.334347
vt 0.816940 0.607470
vt 0.816940 0.334347
vt 0.875163 0.067599
vt 0.875163 0.925127
vt 0.131455 0.925127
vt 0.131455 0.067599
vt 0.200173 0.334348
vt 0.200173 0.607470
vt -0.416593 0.607470
vt -0.416593 0.334348
vt 0.816940 0.061225
vt 0.200173 0.061225
vt 0.816940 0.880593
vt 0.200173 0.880593
vn 0.0000 0.0000 1.0000
vn -1.0000 0.0000 0.0000
vn 0.0000 0.0000 -1.0000
vn 1.0000 0.0000 0.0000
vn 0.0000 -1.0000 0.0000
vn 0.0000 1.0000 0.0000
usemtl Door
s off
f 73/164/31 74/165/31 76/166/31 75/167/31
f 75/167/32 76/166/32 80/168/32 79/169/32
f 79/170/33 80/171/33 78/172/33 77/173/33
f 77/174/34 78/175/34 74/176/34 73/177/34
f 75/178/35 79/169/35 77/174/35 73/179/35
f 80/168/36 76/180/36 74/181/36 78/175/36
o Cube.006_Cube.007
v -10.497788 9.965524 -10.372038
v -10.497788 9.965523 10.372038
v -10.497788 10.965525 -10.372038
v -10.497788 10.965524 10.372038
v 10.497788 9.965524 -10.372038
v 10.497788 9.965523 10.372038
v 10.497788 10.965525 -10.372038
v 10.497788 10.965524 10.372038
vt 0.375000 0.000000
vt 0.625000 0.000000
vt 0.625000 0.250000
vt 0.375000 0.250000
vt 0.625000 0.500000
vt 0.375000 0.500000
vt 0.625000 0.750000
vt 0.375000 0.750000
vt 0.625000 1.000000
vt 0.375000 1.000000
vt 0.125000 0.500000
vt 0.125000 0.750000
vt 0.875000 0.500000
vt 0.875000 0.750000
vn -1.0000 0.0000 0.0000
vn 0.0000 1.0000 0.0000
vn 1.0000 0.0000 0.0000
vn 0.0000 -1.0000 -0.0000
vn 0.0000 0.0000 -1.0000
vn 0.0000 0.0000 1.0000
usemtl Roof
s off
f 81/182/37 82/183/37 84/184/37 83/185/37
f 83/185/38 84/184/38 88/186/38 87/187/38
f 87/187/39 88/186/39 86/188/39 85/189/39
f 85/189/40 86/188/40 82/190/40 81/191/40
f 83/192/41 87/187/41 85/189/41 81/193/41
f 88/186/42 84/194/42 82/195/42 86/188/42
o Cube.007_Cube.008
v -10.463373 8.250940 2.901253
v -10.463375 1.622918 2.901253
v -10.463373 8.250940 1.383821
v -10.463375 1.622918 1.383821
v -11.029211 8.250940 2.901253
v -11.029213 1.622918 2.901253
v -11.029211 8.250940 1.383821
v -11.029213 1.622918 1.383821
vt 0.613547 0.632983
vt 0.391215 0.632983
vt 0.391215 0.410652
vt 0.613547 0.410652
vt 0.391215 0.188320
vt 0.613547 0.188320
vt 0.398810 0.374272
vt 0.648810 0.374272
vt 0.648810 0.624272
vt 0.398810 0.624272
vt 0.372619 0.368161
vt 0.622619 0.368161
vt 0.622619 0.618161
vt 0.372619 0.618161
vt 0.148810 0.374272
vt 0.148810 0.624272
vt 0.898810 0.374272
vt 0.898810 0.624272
vn 1.0000 -0.0000 0.0000
vn 0.0000 0.0000 -1.0000
vn -1.0000 0.0000 0.0000
vn 0.0000 0.0000 1.0000
vn 0.0000 1.0000 0.0000
vn 0.0000 -1.0000 0.0000
usemtl WoodPlank
s off
f 89/196/43 90/197/43 92/198/43 91/199/43
f 91/199/44 92/198/44 96/200/44 95/201/44
f 95/202/45 96/203/45 94/204/45 93/205/45
f 93/206/46 94/207/46 90/208/46 89/209/46
f 91/210/47 95/202/47 93/205/47 89/211/47
f 96/203/48 92/212/48 90/213/48 94/204/48
o Cube.008_Cube.009
v -10.463373 8.250940 1.342997
v -10.463375 1.622918 1.342997
v -10.463373 8.250940 -0.174435
v -10.463375 1.622918 -0.174435
v -11.029211 8.250940 1.342997
v -11.029213 1.622918 1.342997
v -11.029211 8.250940 -0.174435
v -11.029213 1.622918 -0.174435
vt 0.448321 0.381589
vt 0.561203 0.381589
vt 0.561203 0.494470
vt 0.448321 0.494470
vt 0.561203 0.607352
vt 0.448321 0.607352
vt 0.370238 0.376601
vt 0.620238 0.376601
vt 0.620238 0.626601
vt 0.370238 0.626601
vt 0.620238 0.876601
vt 0.370238 0.876601
vt 0.120238 0.376601
vt 0.120238 0.626601
vt 0.870238 0.376601
vt 0.870238 0.626601
vn 1.0000 -0.0000 0.0000
vn 0.0000 0.0000 -1.0000
vn -1.0000 0.0000 0.0000
vn 0.0000 0.0000 1.0000
vn 0.0000 1.0000 0.0000
vn 0.0000 -1.0000 0.0000
usemtl WoodPlank
s off
f 97/214/49 98/215/49 100/216/49 99/217/49
f 99/217/50 100/216/50 104/218/50 103/219/50
f 103/220/51 104/221/51 102/222/51 101/223/51
f 101/223/52 102/222/52 98/224/52 97/225/52
f 99/226/53 103/220/53 101/223/53 97/227/53
f 104/221/54 100/228/54 98/229/54 102/222/54
o Cube.009_Cube.010
v -10.463373 8.250940 -0.201154
v -10.463375 1.622918 -0.201154
v -10.463373 8.250940 -1.718586
v -10.463375 1.622918 -1.718586
v -11.029211 8.250940 -0.201154
v -11.029213 1.622918 -0.201154
v -11.029211 8.250940 -1.718586
v -11.029213 1.622918 -1.718586
vt 0.398810 -0.118743
vt 0.648810 -0.118743
vt 0.648810 0.131257
vt 0.398810 0.131257
vt 0.648810 0.381257
vt 0.398810 0.381257
vt 0.648810 0.631257
vt 0.398810 0.631257
vt 0.648810 0.881257
vt 0.398810 0.881257
vt 0.148810 0.381257
vt 0.148810 0.631257
vt 0.898810 0.381257
vt 0.898810 0.631257
vn 1.0000 -0.0000 0.0000
vn 0.0000 0.0000 -1.0000
vn -1.0000 0.0000 0.0000
vn 0.0000 0.0000 1.0000
vn 0.0000 1.0000 0.0000
vn 0.0000 -1.0000 0.0000
usemtl WoodPlank
s off
f 105/230/55 106/231/55 108/232/55 107/233/55
f 107/233/56 108/232/56 112/234/56 111/235/56
f 111/235/57 112/234/57 110/236/57 109/237/57
f 109/237/58 110/236/58 106/238/58 105/239/58
f 107/240/59 111/235/59 109/237/59 105/241/59
f 112/234/60 108/242/60 106/243/60 110/236/60
o Cube.010_Cube.011
v -10.463373 8.250940 -1.524742
v -10.463375 1.622918 -1.524742
v -10.463373 8.250940 -3.042174
v -10.463375 1.622918 -3.042174
v -11.029211 8.250940 -1.524742
v -11.029213 1.622918 -1.524742
v -11.029211 8.250940 -3.042174
v -11.029213 1.622918 -3.042174
vt 0.403571 -0.116414
vt 0.653571 -0.116414
vt 0.653571 0.133586
vt 0.403571 0.133586
vt 0.403571 0.366414
vt 0.653571 0.366414
vt 0.653571 0.616414
vt 0.403571 0.616414
vt 0.403571 0.383586
vt 0.653571 0.383586
vt 0.653571 0.633586
vt 0.403571 0.633586
vt 0.653571 0.883586
vt 0.403571 0.883586
vt 0.153571 0.383586
vt 0.153571 0.633586
vt 0.903571 0.383586
vt 0.903571 0.633586
vn 1.0000 -0.0000 0.0000
vn 0.0000 0.0000 -1.0000
vn -1.0000 0.0000 0.0000
vn 0.0000 0.0000 1.0000
vn 0.0000 1.0000 0.0000
vn 0.0000 -1.0000 0.0000
usemtl WoodPlank
s off
f 113/244/61 114/245/61 116/246/61 115/247/61
f 115/248/62 116/249/62 120/250/62 119/251/62
f 119/252/63 120/253/63 118/254/63 117/255/63
f 117/255/64 118/254/64 114/256/64 113/257/64
f 115/258/65 119/252/65 117/255/65 113/259/65
f 120/253/66 116/260/66 114/261/66 118/254/66
o Cube.014_Cube.015
v 10.474972 1.622918 2.901253
v 10.474972 8.250940 2.901253
v 10.474972 1.622918 1.383821
v 10.474972 8.250940 1.383821
v 11.040810 1.622918 2.901253
v 11.040810 8.250940 2.901253
v 11.040810 1.622918 1.383821
v 11.040810 8.250940 1.383821
vt 0.410714 -0.123399
vt 0.660714 -0.123399
vt 0.660714 0.126601
vt 0.410714 0.126601
vt 0.660714 0.376601
vt 0.410714 0.376601
vt 0.660714 0.626601
vt 0.410714 0.626601
vt 0.405045 0.360494
vt 0.655045 0.360494
vt 0.655045 0.610494
vt 0.405045 0.610494
vt 0.160714 0.376601
vt 0.160714 0.626601
vt 0.910714 0.376601
vt 0.910714 0.626601
vn -1.0000 0.0000 0.0000
vn 0.0000 0.0000 -1.0000
vn 1.0000 0.0000 0.0000
vn 0.0000 0.0000 1.0000
vn 0.0000 -1.0000 0.0000
vn 0.0000 1.0000 0.0000
usemtl WoodPlank
s off
f 121/262/67 122/263/67 124/264/67 123/265/67
f 123/265/68 124/264/68 128/266/68 127/267/68
f 127/267/69 128/266/69 126/268/69 125/269/69
f 125/270/70 126/271/70 122/272/70 121/273/70
f 123/274/71 127/267/71 125/269/71 121/275/71
f 128/266/72 124/276/72 122/277/72 126/268/72
o Cube.013_Cube.014
v 10.474972 1.622918 1.342997
v 10.474972 8.250940 1.342997
v 10.474972 1.622918 -0.174435
v 10.474972 8.250940 -0.174435
v 11.040810 1.622918 1.342997
v 11.040810 8.250940 1.342997
v 11.040810 1.622918 -0.174435
v 11.040810 8.250940 -0.174435
vt 0.439286 -0.118743
vt 0.689286 -0.118743
vt 0.689286 0.131257
vt 0.439286 0.131257
vt 0.689286 0.381257
vt 0.439286 0.381257
vt 0.689286 0.631257
vt 0.439286 0.631257
vt 0.689286 0.881257
vt 0.439286 0.881257
vt 0.189286 0.381257
vt 0.189286 0.631257
vt 0.939286 0.381257
vt 0.939286 0.631257
vn -1.0000 0.0000 0.0000
vn 0.0000 0.0000 -1.0000
vn 1.0000 0.0000 0.0000
vn 0.0000 0.0000 1.0000
vn 0.0000 -1.0000 0.0000
vn 0.0000 1.0000 0.0000
usemtl WoodPlank
s off
f 129/278/73 130/279/73 132/280/73 131/281/73
f 131/281/74 132/280/74 136/282/74 135/283/74
f 135/283/75 136/282/75 134/284/75 133/285/75
f 133/285/76 134/284/76 130/286/76 129/287/76
f 131/288/77 135/283/77 133/285/77 129/289/77
f 136/282/78 132/290/78 130/291/78 134/284/78
o Cube.012_Cube.013
v 10.474972 1.622918 -0.201154
v 10.474972 8.250940 -0.201154
v 10.474972 1.622918 -1.718586
v 10.474972 8.250940 -1.718586
v 11.040810 1.622918 -0.201154
v 11.040810 8.250940 -0.201154
v 11.040810 1.622918 -1.718586
v 11.040810 8.250940 -1.718586
vt 0.289286 -0.130384
vt 0.539286 -0.130384
vt 0.539286 0.119616
vt 0.289286 0.119616
vt 0.539286 0.369616
vt 0.289286 0.369616
vt 0.539286 0.619616
vt 0.289286 0.619616
vt 0.539286 0.869616
vt 0.289286 0.869616
vt 0.039286 0.369616
vt 0.039286 0.619616
vt 0.789286 0.369616
vt 0.789286 0.619616
vn -1.0000 0.0000 0.0000
vn 0.0000 0.0000 -1.0000
vn 1.0000 0.0000 0.0000
vn 0.0000 0.0000 1.0000
vn 0.0000 -1.0000 0.0000
vn 0.0000 1.0000 0.0000
usemtl WoodPlank
s off
f 137/292/79 138/293/79 140/294/79 139/295/79
f 139/295/80 140/294/80 144/296/80 143/297/80
f 143/297/81 144/296/81 142/298/81 141/299/81
f 141/299/82 142/298/82 138/300/82 137/301/82
f 139/302/83 143/297/83 141/299/83 137/303/83
f 144/296/84 140/304/84 138/305/84 142/298/84
o Cube.011_Cube.012
v 10.474972 1.622918 -1.524742
v 10.474972 8.250940 -1.524742
v 10.474972 1.622918 -3.042174
v 10.474972 8.250940 -3.042174
v 11.040810 1.622918 -1.524742
v 11.040810 8.250940 -1.524742
v 11.040810 1.622918 -3.042174
v 11.040810 8.250940 -3.042174
vt 0.367857 -0.130384
vt 0.617857 -0.130384
vt 0.617857 0.119616
vt 0.367857 0.119616
vt 0.471794 0.376483
vt 0.721794 0.376483
vt 0.721794 0.626483
vt 0.471794 0.626483
vt 0.367857 0.369616
vt 0.617857 0.369616
vt 0.617857 0.619616
vt 0.367857 0.619616
vt 0.617857 0.869616
vt 0.367857 0.869616
vt 0.117857 0.369616
vt 0.117857 0.619616
vt 0.867857 0.369616
vt 0.867857 0.619616
vn -1.0000 0.0000 0.0000
vn 0.0000 0.0000 -1.0000
vn 1.0000 0.0000 0.0000
vn 0.0000 0.0000 1.0000
vn 0.0000 -1.0000 0.0000
vn 0.0000 1.0000 0.0000
usemtl WoodPlank
s off
f 145/306/85 146/307/85 148/308/85 147/309/85
f 147/310/86 148/311/86 152/312/86 151/313/86
f 151/314/87 152/315/87 150/316/87 149/317/87
f 149/317/88 150/316/88 146/318/88 145/319/88
f 147/320/89 151/314/89 149/317/89 145/321/89
f 152/315/90 148/322/90 146/323/90 150/316/90
o Cube.018_Cube.019
v -0.833466 1.622918 11.262599
v -0.833466 8.250940 11.262599
v -2.350898 1.622918 11.262599
v -2.350898 8.250940 11.262599
v -0.833466 1.622918 10.696761
v -0.833466 8.250940 10.696761
v -2.350898 1.622918 10.696761
v -2.350898 8.250940 10.696761
vt 0.336905 0.381839
vt 0.586905 0.381839
vt 0.586905 0.631839
vt 0.336905 0.631839
vt 0.593490 0.570407
vt 0.454130 0.570408
vt 0.454129 0.431048
vt 0.593489 0.431047
vt 0.367857 0.369616
vt 0.617857 0.369616
vt 0.617857 0.619616
vt 0.367857 0.619616
vt 0.617857 0.869616
vt 0.367857 0.869616
vt 0.117857 0.369616
vt 0.117857 0.619616
vt 0.867857 0.369616
vt 0.867857 0.619616
vn 0.0000 0.0000 1.0000
vn -1.0000 0.0000 0.0000
vn 0.0000 0.0000 -1.0000
vn 1.0000 0.0000 0.0000
vn 0.0000 -1.0000 0.0000
vn 0.0000 1.0000 0.0000
usemtl WoodPlank.001
s off
f 153/324/91 154/325/91 156/326/91 155/327/91
f 155/328/92 156/329/92 160/330/92 159/331/92
f 159/332/93 160/333/93 158/334/93 157/335/93
f 157/335/94 158/334/94 154/336/94 153/337/94
f 155/338/95 159/332/95 157/335/95 153/339/95
f 160/333/96 156/340/96 154/341/96 158/334/96
o Cube.017_Cube.018
v 0.490122 1.622918 11.262599
v 0.490122 8.250940 11.262599
v -1.027310 1.622918 11.262599
v -1.027310 8.250940 11.262599
v 0.490122 1.622918 10.696761
v 0.490122 8.250940 10.696761
v -1.027310 1.622918 10.696761
v -1.027310 8.250940 10.696761
vt 0.365476 0.377183
vt 0.615476 0.377183
vt 0.615476 0.627183
vt 0.365476 0.627183
vt 0.289286 0.119616
vt 0.539286 0.119616
vt 0.539286 0.369616
vt 0.289286 0.369616
vt 0.539286 0.619616
vt 0.289286 0.619616
vt 0.539286 0.869616
vt 0.289286 0.869616
vt 0.039286 0.369616
vt 0.039286 0.619616
vt 0.789286 0.369616
vt 0.789286 0.619616
vn 0.0000 0.0000 1.0000
vn -1.0000 0.0000 0.0000
vn 0.0000 0.0000 -1.0000
vn 1.0000 0.0000 0.0000
vn 0.0000 -1.0000 0.0000
vn 0.0000 1.0000 0.0000
usemtl WoodPlank.001
s off
f 161/342/97 162/343/97 164/344/97 163/345/97
f 163/346/98 164/347/98 168/348/98 167/349/98
f 167/349/99 168/348/99 166/350/99 165/351/99
f 165/351/100 166/350/100 162/352/100 161/353/100
f 163/354/101 167/349/101 165/351/101 161/355/101
f 168/348/102 164/356/102 162/357/102 166/350/102
o Cube.016_Cube.017
v 2.034274 1.622918 11.262599
v 2.034274 8.250940 11.262599
v 0.516842 1.622918 11.262599
v 0.516842 8.250940 11.262599
v 2.034274 1.622918 10.696761
v 2.034274 8.250940 10.696761
v 0.516842 1.622918 10.696761
v 0.516842 8.250940 10.696761
vt 0.680797 0.412891
vt 0.776346 0.412891
vt 0.776346 0.508440
vt 0.680797 0.508440
vt 0.776346 0.603989
vt 0.680797 0.603989
vt 0.439286 0.381257
vt 0.689286 0.381257
vt 0.689286 0.631257
vt 0.439286 0.631257
vt 0.689286 0.881257
vt 0.439286 0.881257
vt 0.189286 0.381257
vt 0.189286 0.631257
vt 0.939286 0.381257
vt 0.939286 0.631257
vn 0.0000 0.0000 1.0000
vn -1.0000 0.0000 0.0000
vn 0.0000 0.0000 -1.0000
vn 1.0000 0.0000 0.0000
vn 0.0000 -1.0000 0.0000
vn 0.0000 1.0000 0.0000
usemtl WoodPlank.001
s off
f 169/358/103 170/359/103 172/360/103 171/361/103
f 171/361/104 172/360/104 176/362/104 175/363/104
f 175/364/105 176/365/105 174/366/105 173/367/105
f 173/367/106 174/366/106 170/368/106 169/369/106
f 171/370/107 175/364/107 173/367/107 169/371/107
f 176/365/108 172/372/108 170/373/108 174/366/108
o Cube.015_Cube.016
v 3.592530 1.622918 11.262599
v 3.592530 8.250940 11.262599
v 2.075098 1.622918 11.262599
v 2.075098 8.250940 11.262599
v 3.592530 1.622918 10.696761
v 3.592530 8.250940 10.696761
v 2.075098 1.622918 10.696761
v 2.075098 8.250940 10.696761
vt 0.606755 0.619997
vt 0.440864 0.619997
vt 0.440864 0.454106
vt 0.606755 0.454106
vt 0.606755 0.451016
vt 0.440864 0.451016
vt 0.440864 0.285126
vt 0.606755 0.285126
vt 0.410714 0.376601
vt 0.660714 0.376601
vt 0.660714 0.626601
vt 0.410714 0.626601
vt 0.620478 0.378974
vt 0.870478 0.378974
vt 0.870478 0.628974
vt 0.620478 0.628974
vt 0.160714 0.376601
vt 0.160714 0.626601
vt 0.910714 0.376601
vt 0.910714 0.626601
vn 0.0000 0.0000 1.0000
vn -1.0000 0.0000 0.0000
vn 0.0000 0.0000 -1.0000
vn 1.0000 0.0000 0.0000
vn 0.0000 -1.0000 0.0000
vn 0.0000 1.0000 0.0000
usemtl WoodPlank.001
s off
f 177/374/109 178/375/109 180/376/109 179/377/109
f 179/378/110 180/379/110 184/380/110 183/381/110
f 183/382/111 184/383/111 182/384/111 181/385/111
f 181/386/112 182/387/112 178/388/112 177/389/112
f 179/390/113 183/382/113 181/385/113 177/391/113
f 184/383/114 180/392/114 178/393/114 182/384/114
